<?xml version="1.0" standalone="no"?>
<!DOCTYPE svg PUBLIC "-//W3C//DTD SVG 20010904//EN"
 "http://www.w3.org/TR/2001/REC-SVG-20010904/DTD/svg10.dtd">
<svg version="1.0" xmlns="http://www.w3.org/2000/svg"
 width="512.000000pt" height="512.000000pt" viewBox="0 0 512.000000 512.000000"
 preserveAspectRatio="xMidYMid meet">
<metadata>
Created by potrace 1.11, written by Peter Selinger 2001-2013
</metadata>
<g transform="translate(0.000000,512.000000) scale(0.100000,-0.100000)"
fill="#000000" stroke="none">
<path d="M2539 3928 c-79 -151 -172 -351 -235 -507 -31 -75 -59 -139 -62 -143
-4 -3 -72 57 -152 134 -141 137 -444 398 -461 398 -5 0 -9 -11 -9 -25 0 -31
-3 -31 -46 1 -19 15 -36 25 -38 23 -3 -2 -7 -33 -11 -69 -3 -36 -8 -85 -11
-110 -2 -25 -7 -180 -11 -345 -3 -165 -6 -301 -7 -301 0 -1 -71 26 -156 61
-141 57 -475 173 -542 189 -18 4 -28 2 -28 -5 0 -7 -9 -9 -22 -6 -13 3 -35 9
-50 12 l-26 7 13 -39 c11 -30 11 -39 1 -41 -14 -3 -16 7 39 -172 78 -251 193
-537 315 -781 l58 -115 -86 -33 c-223 -86 -720 -316 -756 -351 -5 -5 6 -17 24
-29 l34 -20 -32 -18 c-38 -21 -39 -25 -9 -39 12 -6 103 -52 202 -102 664 -333
1272 -494 1694 -450 112 12 254 49 344 91 l75 35 54 -25 c153 -71 340 -109
528 -107 129 1 171 5 325 28 338 51 904 260 1360 503 86 45 82 42 66 52 -9 6
5 18 47 42 l60 33 -51 28 c-61 32 -396 198 -402 198 -3 0 -28 11 -57 24 -86
39 -331 136 -345 136 -6 0 -14 4 -17 9 -3 4 32 82 77 172 90 181 121 249 174
384 19 50 41 104 48 120 16 36 117 337 139 414 l16 53 -23 -6 c-58 -17 -80
-19 -73 -8 10 17 3 16 -119 -22 -190 -59 -418 -143 -601 -222 -7 -3 -10 58
-10 193 0 198 -10 486 -19 533 -3 13 -6 39 -7 58 -3 45 -13 48 -50 17 l-32
-27 -11 33 c-7 19 -14 29 -16 24 -2 -6 -26 -28 -54 -50 -27 -22 -79 -64 -115
-95 -35 -30 -78 -66 -94 -80 -51 -44 -187 -173 -263 -249 l-73 -74 -16 39
c-110 271 -325 724 -344 724 -4 0 -15 -16 -24 -35 -19 -40 -28 -39 -46 5 -7
16 -16 30 -20 30 -4 0 -31 -46 -61 -102z m220 -502 c12 -27 31 -72 42 -100 11
-28 27 -64 34 -81 70 -156 198 -578 219 -726 3 -19 8 -47 11 -64 21 -119 26
-309 11 -395 -27 -154 -83 -303 -156 -410 -55 -82 -157 -189 -226 -236 l-53
-36 -58 45 c-261 200 -386 487 -378 866 3 135 9 197 40 366 12 62 77 303 101
370 14 39 27 77 28 85 13 52 136 356 209 514 l41 89 57 -119 c31 -65 66 -141
78 -168z m832 97 c5 -94 7 -595 2 -612 -3 -13 -40 -39 -109 -76 -58 -31 -139
-76 -181 -101 -41 -24 -77 -43 -80 -41 -2 3 -5 13 -7 23 -15 74 -83 317 -98
350 -7 14 -7 28 0 40 23 42 443 443 465 444 4 0 8 -12 8 -27z m-1787 -133 c70
-64 356 -346 356 -351 0 -2 -9 -36 -21 -74 -12 -39 -33 -118 -47 -176 l-27
-106 -90 53 c-49 30 -133 77 -187 105 l-98 52 -1 46 c-3 163 -4 454 -1 499 l4
54 26 -24 c14 -13 53 -48 86 -78z m2527 -436 c-11 -33 -25 -72 -32 -89 -7 -16
-13 -35 -14 -41 -7 -32 -127 -309 -195 -449 -318 -658 -641 -972 -1070 -1043
-41 -7 -68 -8 -154 -3 l-30 1 44 38 c154 131 275 312 334 499 44 141 51 197
51 398 0 88 -2 180 -5 205 l-5 44 85 53 c104 65 374 201 530 267 156 67 421
166 442 166 9 0 20 5 23 11 16 26 14 -4 -4 -57z m-3301 -4 c338 -122 696 -296
948 -461 l52 -34 -6 -65 c-9 -82 -8 -230 0 -339 22 -269 123 -499 305 -688
l41 -43 -63 6 c-34 3 -80 10 -102 16 -22 5 -47 11 -55 13 -37 8 -120 40 -180
70 -276 140 -516 425 -750 893 -58 115 -151 319 -165 362 -1 3 -6 16 -12 30
-6 14 -26 68 -46 120 -20 52 -40 107 -46 123 -6 15 -9 27 -7 27 1 0 40 -13 86
-30z m198 -1080 c114 -185 290 -387 427 -491 64 -49 197 -129 214 -129 5 0 13
-5 17 -11 7 -11 -3 -11 -86 6 -14 3 -38 7 -55 10 -96 13 -362 88 -540 152
-128 46 -371 147 -500 209 -55 26 -103 47 -107 46 -3 -1 -11 5 -18 13 -12 15
5 24 205 112 97 43 376 152 390 152 6 1 30 -30 53 -69z m3110 -59 c64 -27 164
-72 222 -99 l105 -50 -90 -42 c-469 -221 -910 -360 -1245 -395 l-65 -6 45 22
c51 25 182 101 190 109 3 3 39 32 80 64 122 97 289 272 379 397 l83 116 90
-34 c49 -18 142 -56 206 -82z"/>
</g>
</svg>
